<svg aria-hidden="true" style="position: absolute; width: 0; height: 0; overflow: hidden;" version="1.1" xmlns="http://www.w3.org/2000/svg" xmlns:xlink="http://www.w3.org/1999/xlink">
<defs>
<symbol id="icon-2" viewBox="0 0 32 32">
<path fill="#fff" style="fill: var(--color1, #fff)" d="M16 32c8.837 0 16-7.163 16-16s-7.163-16-16-16c-8.837 0-16 7.163-16 16s7.163 16 16 16z"></path>
<path fill="#fd9222" style="fill: var(--color2, #fd9222)" d="M16.541 17.067c-0.138 0.139-0.329 0.225-0.541 0.225s-0.402-0.086-0.541-0.225l-0-0-3.49-3.497c-0.139-0.147-0.336-0.238-0.554-0.238-0.421 0-0.762 0.341-0.762 0.762 0 0.216 0.090 0.411 0.234 0.55l3.497 3.497c0.413 0.413 0.984 0.668 1.615 0.668s1.201-0.255 1.615-0.668l3.497-3.497c0.129-0.136 0.209-0.321 0.209-0.524 0-0.421-0.341-0.762-0.762-0.762-0.205 0-0.391 0.081-0.528 0.212l0-0-3.49 3.497z"></path>
</symbol>
</defs>
</svg>
