<svg aria-hidden="true" style="position: absolute; width: 0; height: 0; overflow: hidden;" version="1.1" xmlns="http://www.w3.org/2000/svg" xmlns:xlink="http://www.w3.org/1999/xlink">
<defs>
<symbol id="icon-LeftIcon" viewBox="0 0 31 32">
<path fill="#ffd700" style="fill: var(--color5, #ffd700)" d="M30.559 5.496h-30.326v22.568h30.326v-22.568z"></path>
<path fill="#0057b7" style="fill: var(--color6, #0057b7)" d="M0.233 5.496h30.326v11.284h-30.326v-11.286z"></path>
<symbol id="icon-Mastercard" viewBox="0 0 50 32">
<path fill="#ed0006" style="fill: var(--color1, #ed0006)" d="M25.143 28.078c-2.647 2.191-6.077 3.52-9.817 3.52-0.018 0-0.035-0-0.053-0h0.003c-8.4-0.002-15.207-6.599-15.207-14.729s6.807-14.725 15.207-14.725c3.767 0 7.211 1.323 9.867 3.518 2.647-2.191 6.077-3.52 9.817-3.52 0.018 0 0.035 0 0.053 0h-0.003c8.4 0 15.209 6.594 15.209 14.727s-6.809 14.727-15.209 14.727c-0.016 0-0.035 0-0.053 0-3.739 0-7.168-1.328-9.84-3.539l0.026 0.021z"></path>
<path fill="#f9a000" style="fill: var(--color2, #f9a000)" d="M25.143 28.078c3.269-2.702 5.344-6.72 5.344-11.209 0-4.487-2.073-8.507-5.344-11.207 2.647-2.191 6.077-3.52 9.817-3.52 0.018 0 0.035 0 0.053 0h-0.003c8.4 0 15.209 6.594 15.209 14.727s-6.809 14.727-15.209 14.727c-0.016 0-0.035 0-0.053 0-3.739 0-7.168-1.328-9.84-3.539l0.026 0.021z"></path>
<path fill="#ff5e00" style="fill: var(--color3, #ff5e00)" d="M25.143 28.078c3.269-2.702 5.344-6.72 5.344-11.209 0-4.487-2.073-8.507-5.344-11.207-3.269 2.699-5.344 6.72-5.344 11.207 0 4.489 2.073 8.507 5.344 11.209z"></path>
</symbol>
<symbol id="icon-2" viewBox="0 0 32 32">
<path  d="M16.547 17.080c-0.14 0.141-0.333 0.227-0.547 0.227s-0.408-0.087-0.547-0.227l-0-0-3.537-3.543c-0.142-0.161-0.349-0.261-0.579-0.261-0.427 0-0.773 0.346-0.773 0.773 0 0.229 0.099 0.434 0.257 0.576l0.001 0.001 3.543 3.544c0.419 0.418 0.997 0.677 1.636 0.677s1.217-0.259 1.636-0.677l3.544-3.544c0.139-0.14 0.224-0.332 0.224-0.544 0-0.427-0.346-0.772-0.772-0.772-0.214 0-0.408 0.087-0.548 0.228l-0 0-3.535 3.543z"></path>
</symbol>
</defs>
</svg>
