<svg xmlns="http://www.w3.org/2000/svg" width="76" height="25" fill="none">
  <g filter="url(#a)">
    <path fill="#FAFAFA" d="M0 0h74v25H0z"/>
    <g clip-path="url(#b)">
      <path fill="gold" d="M23.874 4.294H.182v17.631h23.692V4.294Z"/>
      <path fill="#0057B7" fill-rule="evenodd" d="M.182 4.294h23.692v8.816H.182V4.293Z" clip-rule="evenodd"/>
    </g>
    <path fill="#000" d="M35.486 16.166v-6.132h1.176v6.132h-1.176Zm-2.548-2.506v-1.106h6.272v1.106h-6.272Zm10.325 4.452c-.69 0-1.363-.107-2.016-.322-.644-.215-1.171-.504-1.582-.868l.644-1.106c.327.308.751.56 1.274.756a4.746 4.746 0 0 0 1.68.294c.728 0 1.293-.154 1.694-.462.41-.317.616-.742.616-1.274 0-.513-.196-.924-.588-1.232-.383-.317-.994-.476-1.834-.476h-.784v-.98l2.912-3.584.196.56h-5.362V8.2h6.468v.952l-2.898 3.57-.728-.434h.462c1.185 0 2.072.266 2.66.798.597.532.896 1.209.896 2.03 0 .55-.135 1.055-.406 1.512-.27.457-.681.821-1.232 1.092-.541.261-1.232.392-2.072.392Zm8.558 0c-.794 0-1.48-.117-2.058-.35-.579-.233-1.027-.565-1.344-.994-.318-.439-.476-.952-.476-1.54 0-.579.15-1.069.448-1.47.308-.41.751-.719 1.33-.924.578-.215 1.278-.322 2.1-.322.821 0 1.521.107 2.1.322.588.205 1.036.513 1.344.924.308.41.462.9.462 1.47 0 .588-.159 1.101-.476 1.54-.318.43-.77.76-1.358.994-.588.233-1.279.35-2.072.35Zm0-1.134c.784 0 1.395-.159 1.834-.476.448-.327.672-.765.672-1.316 0-.541-.224-.966-.672-1.274-.439-.317-1.05-.476-1.834-.476-.775 0-1.382.159-1.82.476-.439.308-.658.733-.658 1.274 0 .55.22.99.658 1.316.438.317 1.045.476 1.82.476Zm0-3.71c-.747 0-1.382-.098-1.904-.294-.523-.205-.924-.495-1.204-.868-.28-.383-.42-.835-.42-1.358 0-.55.144-1.022.434-1.414.298-.401.714-.71 1.246-.924.532-.215 1.148-.322 1.848-.322.71 0 1.33.107 1.862.322.532.215.947.523 1.246.924.298.392.448.863.448 1.414 0 .523-.14.975-.42 1.358-.28.373-.686.663-1.218.868-.532.196-1.172.294-1.918.294Zm0-.896c.681 0 1.213-.14 1.596-.42.392-.28.588-.663.588-1.148 0-.495-.2-.882-.602-1.162-.402-.28-.929-.42-1.582-.42-.654 0-1.176.14-1.568.42-.383.28-.574.667-.574 1.162 0 .485.186.868.56 1.148.382.28.91.42 1.582.42Zm8.912 5.74a3.71 3.71 0 0 1-2.058-.588c-.598-.392-1.074-.961-1.428-1.708-.346-.747-.519-1.652-.519-2.716 0-1.064.173-1.97.518-2.716.355-.747.831-1.316 1.428-1.708a3.71 3.71 0 0 1 2.059-.588c.756 0 1.437.196 2.044.588.606.392 1.082.961 1.427 1.708.346.747.519 1.652.519 2.716 0 1.064-.173 1.97-.519 2.716-.345.747-.82 1.316-1.427 1.708a3.685 3.685 0 0 1-2.044.588Zm0-1.246c.513 0 .96-.14 1.344-.42.392-.28.695-.7.91-1.26.224-.56.335-1.255.335-2.086 0-.83-.111-1.526-.336-2.086-.214-.56-.517-.98-.91-1.26-.382-.28-.83-.42-1.343-.42-.514 0-.966.14-1.358.42-.392.28-.7.7-.925 1.26-.214.56-.322 1.255-.322 2.086 0 .83.108 1.526.322 2.086.224.56.532.98.924 1.26s.845.42 1.358.42Z"/>
  </g>
  <defs>
    <clipPath id="b">
      <path fill="#fff" d="M0 4.1h24v18H0z"/>
    </clipPath>
    <filter id="a" width="75.5" height="25" x="0" y="0" color-interpolation-filters="sRGB" filterUnits="userSpaceOnUse">
      <feFlood flood-opacity="0" result="BackgroundImageFix"/>
      <feColorMatrix in="SourceAlpha" result="hardAlpha" values="0 0 0 0 0 0 0 0 0 0 0 0 0 0 0 0 0 0 127 0"/>
      <feOffset dx="1.5"/>
      <feComposite in2="hardAlpha" operator="out"/>
      <feColorMatrix values="0 0 0 0 0 0 0 0 0 0 0 0 0 0 0 0 0 0 0.1 0"/>
      <feBlend in2="BackgroundImageFix" result="effect1_dropShadow_33_4241"/>
      <feBlend in="SourceGraphic" in2="effect1_dropShadow_33_4241" result="shape"/>
    </filter>
  </defs>
</svg>
